# xmcd
#
# Track frame offsets:
#	225
#	11089
#	16739
#	27227
#	34742
#	46956
#	56786
#	69490
#	89940
#	105622
#
# Disc length: 1494
#
# Revision: 1
# Processed by: cddbd v1.5.1PL0 Copyright (c) Steve Scherf et al.
# Submitted via: MusicManager v6.0.0.0
# Normalized: r0:DSETVAR1
#
DISCID=8205d30a
DTITLE=Various Artist - Louisiana Hayride Classic Country Radio Vol. 1
DYEAR=1900
DGENRE=country
TTITLE0=George Jones - The Race is On (live)
TTITLE1=Ray Price - Crazy Arms
TTITLE2=Webb Pierce - I Don't Care (live)
TTITLE3=Johnny Cash - Five Feet High and Rising (live)
TTITLE4=Jim Reeves - Am I Losing You
TTITLE5=Faron Young - Live Fast, Love Hard, Die Young (live)
TTITLE6=Kitty Wells - Making Believe (live)
TTITLE7=Hank Williams - Jambalaya (live)
TTITLE8=Slim Whitman - Careless Hands
TTITLE9=Ernest Tubb - Walking the Floor Over You (live)
EXTD=
EXTT0=
EXTT1=
EXTT2=
EXTT3=
EXTT4=
EXTT5=
EXTT6=
EXTT7=
EXTT8=
EXTT9=
PLAYORDER=
